HIERARCHY
ROOT hip
{
  OFFSET 0 0 0
  CHANNELS 6 Xposition Yposition Zposition Zrotation Yrotation Xrotation
  JOINT abdomen
  {
    OFFSET 0 20.6881 -0.73152
    CHANNELS 3 Zrotation Xrotation Yrotation
    JOINT chest
    {
      OFFSET 0 11.7043 -0.48768
      CHANNELS 3 Zrotation Xrotation Yrotation
      JOINT neck
      {
        OFFSET 0 22.1894 -2.19456
        CHANNELS 3 Zrotation Xrotation Yrotation
        JOINT head
        {
          OFFSET -0.24384 7.07133 1.2192
          CHANNELS 3 Zrotation Xrotation Yrotation
          JOINT leftEye
          {
            OFFSET 4.14528 8.04674 8.04672
            CHANNELS 3 Zrotation Xrotation Yrotation
            End Site
            {
              OFFSET 1 0 0
            }
          }
          JOINT rightEye
          {
            OFFSET -3.6576 8.04674 8.04672
            CHANNELS 3 Zrotation Xrotation Yrotation
            End Site
            {
              OFFSET 1 0 0
            }
          }
        }
      }
      JOINT rCollar
      {
        OFFSET -2.68224 19.2634 -4.8768
        CHANNELS 3 Zrotation Xrotation Yrotation
        JOINT rShldr
        {
          OFFSET -8.77824 -1.95073 1.46304
          CHANNELS 3 Zrotation Xrotation Yrotation
          JOINT rForeArm
          {
            OFFSET -28.1742 -1.7115 0.48768
            CHANNELS 3 Zrotation Xrotation Yrotation
            JOINT rHand
            {
              OFFSET -22.5879 0.773209 7.07136
              CHANNELS 3 Zrotation Xrotation Yrotation
              JOINT rThumb1
              {
                OFFSET -1.2192 -0.487915 3.41376
                CHANNELS 3 Zrotation Xrotation Yrotation
                JOINT rThumb2
                {
                  OFFSET -3.37035 -0.52449 3.41376
                  CHANNELS 3 Zrotation Xrotation Yrotation
                  End Site
                  {
                    OFFSET -1.78271 -1.18214 1.43049
                  }
                }
              }
              JOINT rIndex1
              {
                OFFSET -7.75947 0.938293 5.60832
                CHANNELS 3 Zrotation Xrotation Yrotation
                JOINT rIndex2
                {
                  OFFSET -2.54057 -0.884171 1.56538
                  CHANNELS 3 Zrotation Xrotation Yrotation
                  End Site
                  {
                    OFFSET -1.62519 -0.234802 1.16502
                  }
                }
              }
              JOINT rMid1
              {
                OFFSET -8.24714 1.18213 3.41376
                CHANNELS 3 Zrotation Xrotation Yrotation
                JOINT rMid2
                {
                  OFFSET -3.10165 -0.590103 1.0647
                  CHANNELS 3 Zrotation Xrotation Yrotation
                  End Site
                  {
                    OFFSET -2.48547 -0.328903 0.83742
                  }
                }
              }
              JOINT rRing1
              {
                OFFSET -8.82822 0.546677 1.51678
                CHANNELS 3 Zrotation Xrotation Yrotation
                JOINT rRing2
                {
                  OFFSET -2.60934 -0.819778 -0.0198488
                  CHANNELS 3 Zrotation Xrotation Yrotation
                  End Site
                  {
                    OFFSET -2.33842 -0.294052 0.168128
                  }
                }
              }
              JOINT rPinky1
              {
                OFFSET -8.27202 -0.0477905 -0.4584
                CHANNELS 3 Zrotation Xrotation Yrotation
                JOINT rPinky2
                {
                  OFFSET -1.82734 -0.647385 -0.700984
                  CHANNELS 3 Zrotation Xrotation Yrotation
                  End Site
                  {
                    OFFSET -1.69225 -0.51767 -0.607171
                  }
                }
              }
            }
          }
        }
      }
      JOINT lCollar
      {
        OFFSET 2.68224 19.2634 -4.8768
        CHANNELS 3 Zrotation Xrotation Yrotation
        JOINT lShldr
        {
          OFFSET 8.77824 -1.95073 1.46304
          CHANNELS 3 Zrotation Xrotation Yrotation
          JOINT lForeArm
          {
            OFFSET 28.1742 -1.7115 0.48768
            CHANNELS 3 Zrotation Xrotation Yrotation
            JOINT lHand
            {
              OFFSET 22.5879 0.773209 7.07136
              CHANNELS 3 Zrotation Xrotation Yrotation
              JOINT lThumb1
              {
                OFFSET 1.2192 -0.487915 3.41376
                CHANNELS 3 Zrotation Xrotation Yrotation
                JOINT lThumb2
                {
                  OFFSET 3.37035 -0.52449 3.41376
                  CHANNELS 3 Zrotation Xrotation Yrotation
                  End Site
                  {
                    OFFSET 1.78271 -1.18214 1.43049
                  }
                }
              }
              JOINT lIndex1
              {
                OFFSET 7.75947 0.938293 5.60832
                CHANNELS 3 Zrotation Xrotation Yrotation
                JOINT lIndex2
                {
                  OFFSET 2.54057 -0.884171 1.56538
                  CHANNELS 3 Zrotation Xrotation Yrotation
                  End Site
                  {
                    OFFSET 1.62519 -0.234802 1.16502
                  }
                }
              }
              JOINT lMid1
              {
                OFFSET 8.24714 1.18213 3.41376
                CHANNELS 3 Zrotation Xrotation Yrotation
                JOINT lMid2
                {
                  OFFSET 3.10165 -0.590103 1.0647
                  CHANNELS 3 Zrotation Xrotation Yrotation
                  End Site
                  {
                    OFFSET 2.48547 -0.328903 0.83742
                  }
                }
              }
              JOINT lRing1
              {
                OFFSET 8.82822 0.546677 1.51678
                CHANNELS 3 Zrotation Xrotation Yrotation
                JOINT lRing2
                {
                  OFFSET 2.60934 -0.819778 -0.0198488
                  CHANNELS 3 Zrotation Xrotation Yrotation
                  End Site
                  {
                    OFFSET 2.33842 -0.294052 0.168128
                  }
                }
              }
              JOINT lPinky1
              {
                OFFSET 8.27202 -0.0477905 -0.4584
                CHANNELS 3 Zrotation Xrotation Yrotation
                JOINT lPinky2
                {
                  OFFSET 1.82734 -0.647385 -0.700984
                  CHANNELS 3 Zrotation Xrotation Yrotation
                  End Site
                  {
                    OFFSET 1.69225 -0.51767 -0.607171
                  }
                }
              }
            }
          }
        }
      }
    }
  }
  JOINT rButtock
  {
    OFFSET -8.77824 4.35084 1.2192
    CHANNELS 3 Zrotation Xrotation Yrotation
    JOINT rThigh
    {
      OFFSET 0 -1.70687 -2.19456
      CHANNELS 3 Zrotation Xrotation Yrotation
      JOINT rShin
      {
        OFFSET 0 -36.8199 0.73152
        CHANNELS 3 Zrotation Xrotation Yrotation
        JOINT rFoot
        {
          OFFSET 0.73152 -45.1104 -5.12064
          CHANNELS 3 Zrotation Xrotation Yrotation
          End Site
          {
            OFFSET -1.1221 -3.69964 12.103
          }
        }
      }
    }
  }
  JOINT lButtock
  {
    OFFSET 8.77824 4.35084 1.2192
    CHANNELS 3 Zrotation Xrotation Yrotation
    JOINT lThigh
    {
      OFFSET 0 -1.70687 -2.19456
      CHANNELS 3 Zrotation Xrotation Yrotation
      JOINT lShin
      {
        OFFSET 0 -36.8199 0.73152
        CHANNELS 3 Zrotation Xrotation Yrotation
        JOINT lFoot
        {
          OFFSET -0.73152 -45.1104 -5.12064
          CHANNELS 3 Zrotation Xrotation Yrotation
          End Site
          {
            OFFSET 1.1221 -3.69964 12.103
          }
        }
      }
    }
  }
}
MOTION
Frames:	4
Frame Time:	0.03333
1.0342000300883565 75.20370223377701 0.5500000224199247 -171.2689971923828 50.3871955871582 -173.32899475097656 -11.201499938964844 14.813902854919434 12.906498908996582 1.0413299798965454 -9.835180282592773 3.4020497798919678 -11.42400074005127 15.801097869873047 -12.46399974822998 23.691699981689453 -26.512901306152344 -18.925798416137695 -0.0 0.0 -0.0 -0.0 0.0 -0.0 4.251439966133225e-14 -2.923859613625235e-13 -1.0541099243477348e-12 32.80490493774414 16.506698608398438 23.610198974609375 -20.81239891052246 -14.51300048828125 39.620201110839844 -1.933419942855835 35.61819839477539 5.806499481201172 2.762259976307746e-09 -5.441759931557044e-09 3.217550004208647e-09 4.8519401829594244e-09 -9.412429946564771e-09 5.477340359050231e-09 2.7622697462703627e-09 -5.441759931557044e-09 3.217550004208647e-09 7.730909824371338 5.474879741668701 0.4173140823841095 2.762259976307746e-09 -5.441770145608871e-09 3.2175597741712636e-09 2.9055399894714355 0.9651829600334167 0.10290199518203735 2.7622697462703627e-09 -5.441770145608871e-09 3.2175597741712636e-09 10.27859878540039 0.73180091381073 0.025912316516041756 2.762259976307746e-09 -5.441759931557044e-09 3.21756998822309e-09 2.221669912338257 -0.733487069606781 -0.208919957280159 4.238979772665935e-14 -2.9241496377063747e-13 -1.054349966708723e-12 -113.7490005493164 43.9297981262207 50.23579406738281 27.714696884155273 -41.71019744873047 -87.0469970703125 1.9916799068450928 -36.67660140991211 6.006349563598633 3.6347600484987197e-09 3.5976601697740307e-09 1.2047699504691423e-09 6.2575598036573865e-09 6.2595000294152214e-09 2.1647299508487094e-09 3.6347496124022882e-09 3.5976601697740307e-09 1.2047899344835855e-09 -7.730909824371338 5.474879741668701 -0.4173140823841095 3.6347600484987197e-09 3.5976497336775992e-09 1.2047699504691423e-09 -2.9055399894714355 0.9651829600334167 -0.10290199518203735 3.6347398424396715e-09 3.5976601697740307e-09 1.2047799424763639e-09 -10.27859878540039 0.73180091381073 -0.025912316516041756 3.6347700405059413e-09 3.5976601697740307e-09 1.2047699504691423e-09 -2.221669912338257 -0.733487069606781 0.208919957280159 -2.0321699480147914e-16 0.0 -3.8825099822884138e-19 -15.348901748657227 -32.84880447387695 -28.926502227783203 -0.7713920474052429 54.34909439086914 1.200200080871582 -7.240819454193115 -6.692890167236328 -24.634498596191406 2.0321699480147914e-16 0.0 3.8825099822884138e-19 16.254600524902344 -32.166404724121094 2.059900999069214 0.8425730466842651 56.890201568603516 -1.4437899589538574 5.3831400871276855 -4.693841457366943 22.9700984954834
2.0431000789956335 75.26940182340337 1.041000017015633 -170.6709747314453 55.04229736328125 -172.26097106933594 -9.897470474243164 14.4541015625 12.604400634765625 0.7600769400596619 -9.60321044921875 3.339559555053711 -10.901701927185059 15.01089859008789 -11.608999252319336 22.127099990844727 -25.979700088500977 -17.595298767089844 -0.0 0.0 -0.0 -0.0 0.0 -0.0 -5.3469100485094637e-14 -3.28995999280407e-13 -9.816779550711474e-13 33.920997619628906 7.99052095413208 27.500696182250977 -16.713899612426758 -9.035041809082031 32.385799407958984 -0.9909199476242065 27.610595703125 4.19711971282959 1.6010599512839008e-09 -2.365439843998729e-09 2.7625599585689997e-09 2.8292199694135434e-09 -4.126929908920829e-09 4.72023975461866e-09 1.6010599512839008e-09 -2.365439843998729e-09 2.7625599585689997e-09 7.730909824371338 5.474879741668701 0.4173140823841095 1.6010599512839008e-09 -2.3654500580505555e-09 2.7625697285316164e-09 2.9055399894714355 0.9651829600334167 0.10290199518203735 1.6010599512839008e-09 -2.3654500580505555e-09 2.7625697285316164e-09 10.27859878540039 0.73180091381073 0.025912316516041756 1.6010599512839008e-09 -2.365439843998729e-09 2.762579942583443e-09 2.221669912338257 -0.733487069606781 -0.208919957280159 -5.3621695164608393e-14 -3.2903199479253353e-13 -9.819210331982187e-13 -113.87300109863281 44.61810302734375 51.37109375 27.718297958374023 -41.69740295410156 -87.02179718017578 1.4834498167037964 -32.42900085449219 5.119410037994385 2.429320078434216e-09 2.0483799101356226e-09 3.626209887919174e-10 4.1996099930941e-09 3.5886098537218913e-09 6.771470051347706e-10 2.4293098643823896e-09 2.0483799101356226e-09 3.6263900216049194e-10 -7.730909824371338 5.474879741668701 -0.4173140823841095 2.429320078434216e-09 2.048370140173006e-09 3.626240141496595e-10 -2.9055399894714355 0.9651829600334167 -0.10290199518203735 2.4293098643823896e-09 2.048370140173006e-09 3.6262498559480605e-10 -10.27859878540039 0.73180091381073 -0.025912316516041756 2.429329848396833e-09 2.048370140173006e-09 3.626259847955282e-10 -2.221669912338257 -0.733487069606781 0.208919957280159 -2.0321699480147914e-16 0.0 -3.8825099822884138e-19 -16.383699417114258 -32.05929946899414 -32.21589660644531 -0.7706889510154724 54.42350387573242 1.2167500257492065 -7.628279209136963 -6.013149261474609 -27.11309814453125 2.0321699480147914e-16 0.0 3.8825099822884138e-19 17.012298583984375 -31.209197998046875 2.199359178543091 0.9448009133338928 58.59340286254883 -1.5301100015640259 4.836309909820557 -2.5864198207855225 24.110300064086914
3.0918000670833985 75.1625025327035 1.5220000276970609 -170.17300415039062 58.87330627441406 -171.3709716796875 -8.462589263916016 14.34830093383789 12.018099784851074 0.7501489520072937 -9.595499992370605 3.2254602909088135 -10.544198989868164 14.562500953674316 -10.568599700927734 20.986600875854492 -26.569007873535156 -15.653599739074707 -0.0 0.0 -0.0 -0.0 0.0 -0.0 -1.685829888230586e-13 -2.857169795894565e-13 -5.280680203550471e-14 34.43130111694336 2.095449924468994 29.844501495361328 -16.037002563476562 -8.607090950012207 30.160499572753906 -0.3918580114841461 18.403400421142578 2.664499521255493 -1.0046200538127437e-09 -3.9534797657836407e-10 1.0567199337785382e-09 -1.714249964201997e-09 -6.915639727544942e-10 1.8340600149713282e-09 -1.0046200538127437e-09 -3.9534900353466185e-10 1.0567099417713166e-09 7.730909824371338 5.474879741668701 0.4173140823841095 -1.0046299347976628e-09 -3.95350002735384e-10 1.0567199337785382e-09 2.9055399894714355 0.9651829600334167 0.10290199518203735 -1.0046200538127437e-09 -3.95350002735384e-10 1.0567199337785382e-09 10.27859878540039 0.73180091381073 0.025912316516041756 -1.0046299347976628e-09 -3.953470051332175e-10 1.0567300368080623e-09 2.221669912338257 -0.733487069606781 -0.208919957280159 -1.6867299115590206e-13 -2.8573999178056753e-13 -5.302040002787972e-14 -113.92499542236328 46.61279296875 51.95030212402344 27.73699951171875 -41.62030029296875 -86.87960815429688 1.0420398712158203 -27.7871036529541 4.242670059204102 -1.2339899935209786e-10 9.070050266402063e-10 -5.37806965628107e-10 -2.0842100267870478e-10 1.5771098871297795e-09 -9.224809804919687e-10 -1.234090052371073e-10 9.070060258409285e-10 -5.377869816136638e-10 -7.730909824371338 5.474879741668701 -0.4173140823841095 -1.233950025492092e-10 9.070050266402063e-10 -5.377970291320366e-10 -2.9055399894714355 0.9651829600334167 -0.10290199518203735 -1.2340499455643084e-10 9.070040274394842e-10 -5.378009704237741e-10 -10.27859878540039 0.73180091381073 -0.025912316516041756 -1.233950025492092e-10 9.070029172164595e-10 -5.378019696244962e-10 -2.221669912338257 -0.733487069606781 0.208919957280159 -2.0321699480147914e-16 0.0 -3.8825099822884138e-19 -18.240400314331055 -31.397401809692383 -36.648799896240234 -0.7905869483947754 54.86439514160156 1.231199860572815 -7.456590175628662 -5.333559036254883 -27.775297164916992 2.0321699480147914e-16 0.0 3.8825099822884138e-19 17.117399215698242 -31.985498428344727 1.3803797960281372 1.1662601232528687 61.73130798339844 -1.6770501136779785 3.423409938812256 1.0902501344680786 24.373903274536133
4.30710010841541 74.82599960286448 2.0780000511377246 -169.4559783935547 62.15360641479492 -170.29299926757812 -6.718040466308594 14.157999038696289 11.863497734069824 0.7541519999504089 -9.60858154296875 3.2495198249816895 -10.198999404907227 14.123600006103516 -9.720029830932617 19.984397888183594 -26.649202346801758 -14.1318998336792 -0.0 0.0 -0.0 -0.0 0.0 -0.0 -7.576309913638613e-14 5.317099570963796e-14 1.750150046588017e-13 32.91120147705078 -0.9384219646453857 32.07019805908203 -15.731600761413574 -8.425498962402344 29.144397735595703 -0.35160398483276367 16.328203201293945 2.3648898601531982 -1.5376698803137856e-09 7.421089853743013e-10 5.64273003322846e-11 -2.6575999179101473e-09 1.2879198818538384e-09 1.234029961549865e-10 -1.5376698803137856e-09 7.421069869728569e-10 5.6422103100750576e-11 7.730909824371338 5.474879741668701 0.4173140823841095 -1.5376698803137856e-09 7.421069869728569e-10 5.643329900606453e-11 2.9055399894714355 0.9651829600334167 0.10290199518203735 -1.5376599993288664e-09 7.421069869728569e-10 5.6428497291483026e-11 10.27859878540039 0.73180091381073 0.025912316516041756 -1.5376799833433097e-09 7.421110392868968e-10 5.644089709488931e-11 2.221669912338257 -0.733487069606781 -0.208919957280159 -7.582279124224503e-14 5.315399745245246e-14 1.7482998555806706e-13 -114.01298522949219 48.427005767822266 52.14069747924805 27.784500122070312 -41.43070602416992 -86.52169799804688 0.8034490942955017 -24.48790168762207 3.6735103130340576 -8.812389706847057e-10 -4.815720044959448e-10 -7.673710000766221e-10 -1.5131499386811242e-09 -8.388240102519262e-10 -1.3386699526662937e-09 -8.812470198016342e-10 -4.815700060945005e-10 -7.673559565546384e-10 -7.730909824371338 5.474879741668701 -0.4173140823841095 -8.812369722832614e-10 -4.815700060945005e-10 -7.6736594856186e-10 -2.9055399894714355 0.9651829600334167 -0.10290199518203735 -8.812440221994677e-10 -4.815710052952227e-10 -7.673689461640265e-10 -10.27859878540039 0.73180091381073 -0.025912316516041756 -8.812359730825392e-10 -4.81573003696667e-10 -7.673729984780664e-10 -2.221669912338257 -0.733487069606781 0.208919957280159 -2.0321699480147914e-16 0.0 -3.8825099822884138e-19 -19.27309799194336 -30.715198516845703 -40.312599182128906 -0.8128358721733093 55.33000564575195 1.2441799640655518 -7.259990215301514 -4.87761926651001 -27.992399215698242 2.0321699480147914e-16 0.0 3.8825099822884138e-19 18.055198669433594 -33.47699737548828 1.744438648223877 1.4799197912216187 65.28551483154297 -1.9309499263763428 2.4494497776031494 3.343899965286255 22.875699996948242
